<?xml version="1.0" encoding="UTF-8"?>
<svg id="Layer_1" data-name="Layer 1" xmlns="http://www.w3.org/2000/svg" version="1.1" viewBox="0 0 128 128">
  <defs>
    <style>
      .cls-1 {
        fill: #231f20;
        stroke-width: 0px;
      }

      .cls-2 {
        fill: none;
        stroke: #231f20;
        stroke-miterlimit: 10;
      }
    </style>
  </defs>
  <polygon class="cls-1" points="45.11 28.67 35.76 35.44 39.44 46.26 29.98 39.63 20.63 46.4 24.14 35.53 14.68 28.9 26.3 28.81 29.81 17.94 33.49 28.76 45.11 28.67">
  <animateTransform attributeName="transform"
        attributeType="XML"
        type="rotate"
        from="0 15 28"
        to="360 15 28"
        dur="3s"
        repeatCount="4" />
      </polygon>  
  <!-- I want to let them rotate several times -->
  <polygon class="cls-1" points="45.95 59.36 36.59 66.13 40.27 76.95 30.81 70.32 21.46 77.09 24.97 66.22 15.51 59.59 27.14 59.5 30.65 48.63 34.32 59.45 45.95 59.36">
    <animateTransform attributeName="transform"
        attributeType="XML"
        type="rotate"
        from="5 15 58"
        to="-5 15 58"
        dur="3s"
        repeatCount="3" />
      </polygon> 
    <polygon class="cls-1" points="45.98 90.05 36.63 96.83 40.31 107.64 30.85 101.01 21.5 107.78 25.01 96.91 15.55 90.28 27.18 90.19 30.68 79.32 34.36 90.14 45.98 90.05">
    <animateTransform attributeName="transform"
        attributeType="XML"
        type="rotate"
        from="0 15 95"
        to="360 15 95"
        dur="3s"
        repeatCount="2" />
      </polygon> 
  <rect class="cls-1" x="50.34" y="30.82" width="62.06" height="9.59" rx="4.8" ry="4.8"/>
  <rect class="cls-1" x="50.34" y="61.59" width="62.06" height="9.59" rx="4.8" ry="4.8"/>
  <rect class="cls-1" x="50.34" y="92.35" width="62.06" height="9.59" rx="4.8" ry="4.8"/>
  <rect class="cls-2" x="5.82" y="14.44" width="116.37" height="97.93" rx="12" ry="12"/>
</svg>